Coordinates
version=1
nRows=7
nColumns=63
inDegrees=yes

Units are S.I. units (second, meters, Newtons, ...)
If the header above contains a line with 'inDegrees', this indicates whether rotational values are in degrees (yes) or radians (no).

endheader
time	pelvis_tilt	pelvis_list	pelvis_rotation	pelvis_tx	pelvis_ty	pelvis_tz	hip_flexion_r	hip_adduction_r	hip_rotation_r	knee_angle_r	knee_angle_r_beta	ankle_angle_r	subtalar_angle_r	mtp_angle_r	hip_flexion_l	hip_adduction_l	hip_rotation_l	knee_angle_l	knee_angle_l_beta	ankle_angle_l	subtalar_angle_l	mtp_angle_l	L5_S1_Flex_Ext	L5_S1_Lat_Bending	L5_S1_axial_rotation	L4_L5_Flex_Ext	L4_L5_Lat_Bending	L4_L5_axial_rotation	L3_L4_Flex_Ext	L3_L4_Lat_Bending	L3_L4_axial_rotation	L2_L3_Flex_Ext	L2_L3_Lat_Bending	L2_L3_axial_rotation	L1_L2_Flex_Ext	L1_L2_Lat_Bending	L1_L2_axial_rotation	L1_T12_Flex_Ext	L1_T12_Lat_Bending	L1_T12_axial_rotation	Abs_r3	Abs_r2	Abs_r1	Abs_t1	Abs_t2	neck_flexion	neck_bending	neck_rotation	arm_flex_r	arm_add_r	arm_rot_r	elbow_flex_r	pro_sup_r	wrist_flex_r	wrist_dev_r	arm_flex_l	arm_add_l	arm_rot_l	elbow_flex_l	pro_sup_l	wrist_flex_l	wrist_dev_l
      2.15000000	      0.63542552	     -6.54314264	     99.15447282	      0.26001316	      0.69181021	      0.93191323	      5.97662819	     -0.23487758	      0.83980981	      5.41323763	      0.09447882	     20.08899979	     -2.00474016	      0.00000000	      7.21947443	     -0.31534154	     -0.36755330	      6.58408806	      0.11491401	     22.43530712	      3.85675887	      0.00000000	      0.10780191	     -0.06880162	      0.60098752	      0.20019892	     -0.09150615	      0.63854924	      0.17710776	     -0.16728426	      0.63854924	      0.12320680	     -0.16728426	      0.52586408	      0.10010485	     -0.14030026	      0.48830236	      0.06159801	     -0.10657371	      0.45074064	      0.77001825	     -0.77829767	      3.34251231	      0.00000000	      0.00000000	     22.64250032	      4.71255535	      7.07120613	     10.92711876	    -11.77519094	     61.53955587	     50.53776339	     87.99358161	      2.80042661	      4.02966772	     18.50781252	    -16.14242836	     78.68019090	     59.61444630	     23.80648512	    -23.66703649	     -6.10893367
      2.16666667	      0.62461414	     -6.39068900	     99.34796308	      0.25931416	      0.69195192	      0.93179340	      5.71066586	     -0.30630505	     -0.17844297	      5.25244195	      0.09167241	     20.39601146	     -0.69602295	      0.00000000	      7.25603345	     -0.30026643	     -0.48315475	      6.99604545	      0.12210403	     22.68371034	      4.11778377	      0.00000000	      0.08444458	     -0.07732726	      0.60706460	      0.15682204	     -0.10284525	      0.64500614	      0.13873401	     -0.18801349	      0.64500614	      0.09651172	     -0.18801349	      0.53118153	      0.07841524	     -0.15768574	      0.49323999	      0.04825164	     -0.11977992	      0.45529845	      0.60317922	     -0.87474138	      3.37631121	      0.00000000	      0.00000000	     22.35779942	      4.69735845	      6.66564068	     10.79705481	    -11.85430555	     61.13180028	     50.65754278	     87.51863403	      2.67199998	      4.28301968	     18.37787405	    -16.09916396	     78.14033543	     59.25828743	     26.48375430	    -22.18615457	     -4.27951770
      2.18333333	      0.64182166	     -6.44427512	     99.63061961	      0.25868503	      0.69168201	      0.93161467	      5.67166612	     -0.27845098	      0.63273009	      5.15917233	      0.09004454	     20.10432993	     -2.25589896	      0.00000000	      7.60279285	     -0.37195155	     -1.55519163	      7.56947225	      0.13211221	     23.23939264	      5.88305109	      0.00000000	      0.10813683	     -0.08950326	      0.63039324	      0.20082091	     -0.11903933	      0.66979282	      0.17765800	     -0.21761822	      0.66979282	      0.12358959	     -0.21761822	      0.55159409	      0.10041586	     -0.18251505	      0.51219451	      0.06178939	     -0.13864055	      0.47279493	      0.77241059	     -1.01247877	      3.50605811	      0.00000000	      0.00000000	     21.79356594	      4.66070992	      6.14122611	      9.65777989	    -11.50533827	     57.90259080	     50.32814287	     87.37399855	      5.65277574	      4.34465938	     18.86289459	    -15.94024173	     80.40019431	     59.17694230	     23.55431304	    -23.31055160	     -8.16223655
      2.20000000	      0.64418845	     -6.40379014	     99.79783703	      0.25796591	      0.69155674	      0.93159240	      5.59568643	     -0.34784297	     -0.44108338	      5.20278670	      0.09080576	     20.37698681	     -0.95977621	      0.00000000	      7.78725998	     -0.37237314	     -1.87872177	      7.98068435	      0.13928922	     23.54805767	      6.34833528	      0.00000000	      0.11023157	     -0.09572600	      0.57553904	      0.20471104	     -0.12731558	      0.61151023	      0.18109944	     -0.23274820	      0.61151023	      0.12598366	     -0.23274820	      0.50359666	      0.10236103	     -0.19520447	      0.46762547	      0.06298632	     -0.14827958	      0.43165428	      0.78737305	     -1.08287170	      3.20097545	      0.00000000	      0.00000000	     21.50046798	      4.87151997	      6.10378837	      9.41701501	    -11.38964333	     57.23484444	     50.22509098	     86.86493995	      5.90393157	      4.25488235	     17.98549455	    -16.04982582	     78.83950513	     59.00532861	     26.04538157	    -22.53289009	     -7.55080705
      2.21666667	      0.59940479	     -6.36832356	     99.94281237	      0.25745890	      0.69137522	      0.93172180	      5.55844691	     -0.41707053	     -0.76576163	      5.32425049	      0.09292570	     20.42292816	     -0.81714644	      0.00000000	      8.00728866	     -0.40002924	     -3.01836677	      8.43970917	      0.14730071	     23.99278405	      7.91381696	      0.00000000	      0.10459890	     -0.10988432	      0.51590022	      0.19425062	     -0.14614615	      0.54814398	      0.17184553	     -0.26717274	      0.54814398	      0.11954608	     -0.26717274	      0.45141269	      0.09713054	     -0.22407611	      0.41916893	      0.05976781	     -0.17021082	      0.38692516	      0.74713949	     -1.24303343	      2.86928224	      0.00000000	      0.00000000	     21.45192961	      5.02810426	      5.92089313	      9.25100475	    -11.11949038	     56.22404342	     49.87002418	     85.90626920	      7.84250552	      4.25790727	     17.54379934	    -16.27686898	     78.34008434	     59.27323599	     26.79104769	    -23.41789870	     -7.92280871
      2.23333333	      0.56174123	     -6.38923178	     99.94806551	      0.25690976	      0.69119500	      0.93180562	      5.64562728	     -0.53043224	     -1.71398154	      5.57306527	      0.09726834	     20.66517990	      0.39412184	      0.00000000	      8.22776379	     -0.38310356	     -3.65360415	      8.79090693	      0.15343027	     24.28525276	      8.60454245	      0.00000000	      0.10364626	     -0.11839033	      0.44061086	      0.19248147	     -0.15745913	      0.46814904	      0.17028044	     -0.28785424	      0.46814904	      0.11845731	     -0.28785424	      0.38553451	      0.09624592	     -0.24142155	      0.35799633	      0.05922347	     -0.18338661	      0.33045815	      0.74033488	     -1.33925504	      2.45054544	      0.00000000	      0.00000000	     21.52744710	      5.25224597	      5.97469346	      9.25048729	    -11.02022356	     56.05625603	     49.85921132	     84.95340410	      8.13511481	      4.45657967	     16.33946990	    -16.51124832	     76.04197174	     59.44637337	     28.89694132	    -23.11630280	     -7.19344465
      2.25000000	      0.49133862	     -6.28514974	     99.90401646	      0.25632228	      0.69127853	      0.93182310	      5.54606278	     -0.62702511	     -2.09832645	      5.71020320	      0.09966185	     20.65421770	      0.86544595	      0.00000000	      8.16925551	     -0.28126198	     -3.55911799	      8.83687891	      0.15423263	     24.30350594	      8.33338180	      0.00000000	      0.07929318	     -0.12754802	      0.39904632	      0.14725536	     -0.16963887	      0.42398671	      0.13027077	     -0.31012027	      0.42398671	      0.09062418	     -0.31012027	      0.34916553	      0.07363165	     -0.26009593	      0.32422513	      0.04530812	     -0.19757189	      0.29928474	      0.56638326	     -1.44284877	      2.21937590	      0.00000000	      0.00000000	     21.79329094	      5.24905571	      5.70469553	      9.37868350	    -11.02186958	     56.25209712	     49.87495493	     82.81440303	      8.43681890	      4.77451570	     15.68234828	    -16.64892958	     74.73775562	     59.63758769	     29.77525117	    -23.14835806	     -6.69680178
